<svg xmlns="http://www.w3.org/2000/svg" viewBox="0 0 120 120" role="img" aria-label="Avatar 02">
  <defs><clipPath id="c"><circle cx="60" cy="60" r="60"/></clipPath></defs>
  <g clip-path="url(#c)">
    <rect width="120" height="120" fill="#f3c9b6"/>
    <circle cx="60" cy="130" r="70" fill="rgba(255,255,255,.12)"/>
    <path d="M14 122 C14 96 36 84 60 84 C84 84 106 96 106 122Z" fill="#3d3550"/>
    <path d="M47 85 L60 108 L73 85 Q60 80 47 85Z" fill="#ffffff"/>
    <path d="M47 85 L60 108 L50 110 L40 90Z" fill="rgba(255,255,255,.1)"/><path d="M73 85 L60 108 L70 110 L80 90Z" fill="rgba(0,0,0,.14)"/>
    <path d="M56 88 h8 l3 8 l-7 22 l-7 -22Z" fill="#d97757"/><path d="M56 88 h8 l-1.5 6 h-5Z" fill="rgba(0,0,0,.18)"/>
    <path d="M33 52 C30 22 90 22 87 52 L91 94 Q77 98 73 84 L47 84 Q43 98 29 94Z" fill="#5a3a26"/>
    <rect x="53" y="70" width="14" height="17" rx="5" fill="#f6d3b8"/><rect x="53" y="76" width="14" height="6" fill="rgba(0,0,0,.12)"/>
    <circle cx="36.5" cy="55" r="4.5" fill="#f6d3b8"/><circle cx="83.5" cy="55" r="4.5" fill="#f6d3b8"/><circle cx="60" cy="52" r="24" fill="#f6d3b8"/>
    <path d="M35.5 52 C33 26 87 24 84.5 52 C82 42 74 36 52 40 C44 42 38 46 35.5 52Z" fill="#5a3a26"/>
    <circle cx="50.5" cy="53" r="2.6" fill="#2b2220"/><circle cx="69.5" cy="53" r="2.6" fill="#2b2220"/><path d="M46.5 50 l-2.4 -2 M73.5 50 l2.4 -2" stroke="#2b2220" stroke-width="1.6" stroke-linecap="round"/><path d="M53 63 Q60 69 67 63" fill="none" stroke="#c0566a" stroke-width="2.6" stroke-linecap="round"/>
    <circle cx="36" cy="62" r="2.4" fill="#e2b341"/><circle cx="84" cy="62" r="2.4" fill="#e2b341"/>
  </g>
</svg>
