<svg xmlns="http://www.w3.org/2000/svg" viewBox="0 0 120 120" role="img" aria-label="project-manager 3">
  <defs><clipPath id="c"><circle cx="60" cy="60" r="60"/></clipPath></defs>
  <g clip-path="url(#c)">
    <rect width="120" height="120" fill="#123840"/>
    <circle cx="60" cy="130" r="70" fill="rgba(255,255,255,.12)"/>
    <path d="M14 122 C14 96 36 84 60 84 C84 84 106 96 106 122Z" fill="#f4eee5"/>
    <path d="M47 85 L60 108 L73 85 Q60 80 47 85Z" fill="#d5f1ee"/>
    <path d="M47 85 L60 108 L50 110 L40 90Z" fill="rgba(255,255,255,.1)"/><path d="M73 85 L60 108 L70 110 L80 90Z" fill="rgba(0,0,0,.14)"/>
    <path d="M56 88 h8 l3 8 l-7 22 l-7 -22Z" fill="#1d5560"/><path d="M56 88 h8 l-1.5 6 h-5Z" fill="rgba(0,0,0,.18)"/>
    <path d="M48 86 L72 86" stroke="#1d5560" stroke-width="0"/><path d="M47 86 Q44 100 80 104" fill="none" stroke="#1d5560" stroke-width="2"/><rect x="74" y="100" width="14" height="16" rx="2" fill="#f4eee5"/><rect x="77" y="103" width="8" height="5" rx="1" fill="#1d5560"/><rect x="77" y="110" width="8" height="1.6" fill="#9aa3ab"/>
    <circle cx="60" cy="46" r="28" fill="#2b2220"/>
    <rect x="53" y="70" width="14" height="17" rx="5" fill="#b9794f"/><rect x="53" y="76" width="14" height="6" fill="rgba(0,0,0,.12)"/>
    <circle cx="36.5" cy="55" r="4.5" fill="#b9794f"/><circle cx="83.5" cy="55" r="4.5" fill="#b9794f"/><circle cx="60" cy="52" r="24" fill="#b9794f"/>
    <path d="M35.5 50 C34 27 86 27 84.5 50 C79 40 71 37 60 37 C49 37 41 40 35.5 50Z" fill="#2b2220"/>
    <circle cx="50.5" cy="53" r="2.6" fill="#2b2220"/><circle cx="69.5" cy="53" r="2.6" fill="#2b2220"/><path d="M52 63 Q60 69.5 68 63" fill="none" stroke="rgba(60,30,20,.7)" stroke-width="2.2" stroke-linecap="round"/>
    <g fill="none" stroke="#2b2220" stroke-width="2.2"><circle cx="50" cy="53" r="7"/><circle cx="70" cy="53" r="7"/><path d="M57 53h6"/></g><path d="M52 66 Q60 62 68 66 Q67 78 60 80 Q53 78 52 66Z" fill="#2b2220"/>
    <circle cx="60" cy="60" r="57" fill="none" stroke="#4fd1c5" stroke-width="6"/>
  </g>
</svg>
