<svg xmlns="http://www.w3.org/2000/svg" viewBox="0 0 120 120" role="img" aria-label="sviluppatore 2">
  <defs><clipPath id="c"><circle cx="60" cy="60" r="60"/></clipPath></defs>
  <g clip-path="url(#c)">
    <rect width="120" height="120" fill="#12241a"/>
    <circle cx="60" cy="130" r="70" fill="rgba(255,255,255,.12)"/>
    <path d="M28 96 Q24 58 60 56 Q96 58 92 96 Q76 84 60 84 Q44 84 28 96Z" fill="#3f4d44"/>
    <path d="M14 122 C14 96 36 84 60 84 C84 84 106 96 106 122Z" fill="#2f3a33"/>
    <path d="M47 85 L60 108 L73 85 Q60 80 47 85Z" fill="#ffffff"/>
    <path d="M47 85 L60 108 L50 110 L40 90Z" fill="rgba(255,255,255,.1)"/><path d="M73 85 L60 108 L70 110 L80 90Z" fill="rgba(0,0,0,.14)"/>
    <path d="M56 88 h8 l3 8 l-7 22 l-7 -22Z" fill="#7bd88f"/><path d="M56 88 h8 l-1.5 6 h-5Z" fill="rgba(0,0,0,.18)"/>
    <g fill="none" stroke="#7bd88f" stroke-width="2.4" stroke-linecap="round" stroke-linejoin="round"><path d="M32 100 l-6 6 6 6"/><path d="M41 98 l-4 16"/><path d="M46 100 l6 6 -6 6" transform="translate(0 0)"/></g>
    <path d="M32 50 C30 22 90 22 88 50 L89 72 Q81 80 74 72 L46 72 Q39 80 31 72Z" fill="#2b2220"/>
    <rect x="53" y="70" width="14" height="17" rx="5" fill="#b9794f"/><rect x="53" y="76" width="14" height="6" fill="rgba(0,0,0,.12)"/>
    <circle cx="36.5" cy="55" r="4.5" fill="#b9794f"/><circle cx="83.5" cy="55" r="4.5" fill="#b9794f"/><circle cx="60" cy="52" r="24" fill="#b9794f"/>
    <path d="M35.5 54 C33 26 87 26 84.5 54 C83 46 80 42 76 41 Q60 47 44 41 C40 42 37 46 35.5 54Z" fill="#2b2220"/>
    <circle cx="50.5" cy="53" r="2.6" fill="#2b2220"/><circle cx="69.5" cy="53" r="2.6" fill="#2b2220"/><path d="M46.5 50 l-2.4 -2 M73.5 50 l2.4 -2" stroke="#2b2220" stroke-width="1.6" stroke-linecap="round"/><path d="M53 63 Q60 69 67 63" fill="none" stroke="#c0566a" stroke-width="2.6" stroke-linecap="round"/>
    <g fill="none" stroke="#2b2220" stroke-width="2.2"><circle cx="50" cy="53" r="7"/><circle cx="70" cy="53" r="7"/><path d="M57 53h6"/></g><path d="M34 52 A26 26 0 0 1 86 52" fill="none" stroke="#2b2220" stroke-width="5"/><rect x="28" y="46" width="10" height="18" rx="5" fill="#7bd88f"/><rect x="82" y="46" width="10" height="18" rx="5" fill="#7bd88f"/>
    <circle cx="60" cy="60" r="57" fill="none" stroke="#7bd88f" stroke-width="6"/>
  </g>
</svg>
